HIERARCHY
ROOT Hips
{
	OFFSET 0.00000 0.00000 0.00000
	CHANNELS 6 Xposition Yposition Zposition Zrotation Yrotation Xrotation 
	JOINT LHipJoint
	{
		OFFSET 0 0 0
		CHANNELS 3 Zrotation Yrotation Xrotation
		JOINT LeftUpLeg
		{
			OFFSET 1.85590 -1.73949 0.84976
			CHANNELS 3 Zrotation Yrotation Xrotation
			JOINT LeftLeg
			{
				OFFSET 2.36836 -6.50702 0.00000
				CHANNELS 3 Zrotation Yrotation Xrotation
				JOINT LeftFoot
				{
					OFFSET 2.53268 -6.95849 0.00000
					CHANNELS 3 Zrotation Yrotation Xrotation
					JOINT LeftToeBase
					{
						OFFSET 0.15935 -0.43781 1.94506
						CHANNELS 3 Zrotation Yrotation Xrotation
						End Site
						{
							OFFSET 0.00000 -0.00000 1.00661
						}
					}
				}
			}
		}
	}
	JOINT RHipJoint
	{
		OFFSET 0 0 0
		CHANNELS 3 Zrotation Yrotation Xrotation
		JOINT RightUpLeg
		{
			OFFSET -1.68297 -1.73949 0.84976
			CHANNELS 3 Zrotation Yrotation Xrotation
			JOINT RightLeg
			{
				OFFSET -2.44709 -6.72334 0.00000
				CHANNELS 3 Zrotation Yrotation Xrotation
				JOINT RightFoot
				{
					OFFSET -2.43843 -6.69953 0.00000
					CHANNELS 3 Zrotation Yrotation Xrotation
					JOINT RightToeBase
					{
						OFFSET -0.20854 -0.57295 2.02172
						CHANNELS 3 Zrotation Yrotation Xrotation
						End Site
						{
							OFFSET -0.00000 -0.00000 1.05594
						}
					}
				}
			}
		}
	}
	JOINT LowerBack
	{
		OFFSET 0 0 0
		CHANNELS 3 Zrotation Yrotation Xrotation
		JOINT Spine
		{
			OFFSET -0.01560 2.23971 -0.03712
			CHANNELS 3 Zrotation Yrotation Xrotation
			JOINT Spine1
			{
				OFFSET 0.05490 2.19225 -0.19086
				CHANNELS 3 Zrotation Yrotation Xrotation
				JOINT Neck
				{
					OFFSET 0 0 0
					CHANNELS 3 Zrotation Yrotation Xrotation
					JOINT Neck1
					{
						OFFSET -0.12403 1.43168 0.27585
						CHANNELS 3 Zrotation Yrotation Xrotation
						JOINT Head
						{
							OFFSET 0.17855 1.46173 -0.32578
							CHANNELS 3 Zrotation Yrotation Xrotation
							End Site
							{
								OFFSET 0.07217 1.51590 -0.14537
							}
						}
					}
				}
				JOINT LeftShoulder
				{
					OFFSET 0 0 0
					CHANNELS 3 Zrotation Yrotation Xrotation
					JOINT LeftArm
					{
						OFFSET 3.27650 0.85634 0.05396
						CHANNELS 3 Zrotation Yrotation Xrotation
						JOINT LeftForeArm
						{
							OFFSET 4.96755 -0.00000 0.00000
							CHANNELS 3 Zrotation Yrotation Xrotation
							JOINT LeftHand
							{
								OFFSET 3.35751 -0.00000 0.00000
								CHANNELS 3 Zrotation Yrotation Xrotation
								JOINT LeftFingerBase
								{
									OFFSET 0 0 0
									CHANNELS 3 Zrotation Yrotation Xrotation
									JOINT LeftHandIndex1
									{
										OFFSET 0.79697 -0.00000 0.00000
										CHANNELS 3 Zrotation Yrotation Xrotation
										End Site
										{
											OFFSET 0.64254 -0.00000 0.00000
										}
									}
								}
								JOINT LThumb
								{
									OFFSET 0 0 0
									CHANNELS 3 Zrotation Yrotation Xrotation
									End Site
									{
										OFFSET 0.65235 -0.00000 0.65235
									}
								}
							}
						}
					}
				}
				JOINT RightShoulder
				{
					OFFSET 0 0 0
					CHANNELS 3 Zrotation Yrotation Xrotation
					JOINT RightArm
					{
						OFFSET -3.24434 1.02034 0.34688
						CHANNELS 3 Zrotation Yrotation Xrotation
						JOINT RightForeArm
						{
							OFFSET -5.21859 -0.00000 -0.00000
							CHANNELS 3 Zrotation Yrotation Xrotation
							JOINT RightHand
							{
								OFFSET -3.36504 -0.00000 0.00000
								CHANNELS 3 Zrotation Yrotation Xrotation
								JOINT RightFingerBase
								{
									OFFSET 0 0 0
									CHANNELS 3 Zrotation Yrotation Xrotation
									JOINT RightHandIndex1
									{
										OFFSET -0.62044 -0.00000 0.00000
										CHANNELS 3 Zrotation Yrotation Xrotation
										End Site
										{
											OFFSET -0.50022 -0.00000 0.00000
										}
									}
								}
								JOINT RThumb
								{
									OFFSET 0 0 0
									CHANNELS 3 Zrotation Yrotation Xrotation
									End Site
									{
										OFFSET -0.50786 -0.00000 0.50786
									}
								}
							}
						}
					}
				}
			}
		}
	}
}
MOTION
Frames: 11
Frame Time: .0083333
8.227200 16.265100 -30.919400 -1.965600 5.944800 3.635100 0.000000 0.000000 0.000000 -12.996600 8.094800 -18.592300 11.577000 18.206100 64.641600 -0.209200 9.446200 -8.683100 0.088100 1.914800 5.270200 0.000000 0.000000 0.000000 27.765800 7.052400 -16.808300 -2.077600 -9.026000 25.876600 -0.580200 4.632400 -13.561500 -0.050000 1.442900 -3.968200 -1.711500 -1.360600 -5.877700 3.224400 -1.803600 -0.190100 4.146600 -0.949100 3.259600 -12.986200 -5.642700 -22.163600 13.506600 -6.971900 20.591200 6.038500 -2.587600 11.332000 -0.000000 0.000000 0.000000 -84.723800 11.414200 41.860500 13.620800 -22.190000 -2.683200 -0.000000 0.000000 -3.413100 13.136000 -19.496600 -4.453600 -7.125000 0.000000 -0.000000 -9.797900 10.228200 8.023800 -0.000000 0.000000 0.000000 77.013600 -12.954900 45.270400 -18.730400 29.082300 -4.899100 0.000000 -0.000000 -17.986000 -32.619000 -25.886500 15.611100 7.125000 -0.000000 -0.000000 -3.330100 -59.897700 1.211600
8.216700 16.265700 -30.816600 -2.187400 5.611100 3.502900 0.000000 0.000000 0.000000 -12.821800 7.852500 -19.764800 11.748400 18.282300 65.189100 -0.151800 9.086500 -9.631500 0.019600 0.904300 2.485600 0.000000 0.000000 0.000000 28.160100 7.052200 -16.035000 -2.032500 -8.933400 25.587100 -0.624400 4.757900 -14.072700 -0.063200 1.621400 -4.460500 -1.580800 -1.205100 -5.729900 3.379800 -1.611900 -0.099400 4.254000 -0.854100 3.255000 -13.117300 -5.665000 -22.173000 13.360800 -6.917900 20.605200 6.013900 -2.590500 11.328400 -0.000000 0.000000 0.000000 -84.801300 11.824500 41.386000 13.887200 -22.573200 -2.784700 -0.000000 0.000000 -4.242800 13.536000 -19.555300 -4.607000 -7.125000 0.000000 -0.000000 -9.541300 10.127500 7.827100 -0.000000 0.000000 0.000000 76.470500 -12.009700 45.739000 -18.774900 29.138000 -4.920800 0.000000 -0.000000 -17.652400 -31.601500 -24.361900 14.240200 7.125000 -0.000000 -0.000000 -2.507200 -57.959900 0.795500
8.203800 16.267600 -30.719000 -2.360200 5.243700 3.510500 0.000000 0.000000 0.000000 -12.768300 7.607700 -21.115700 11.881300 18.340000 65.612200 -0.170200 9.094900 -9.117400 0.123000 2.260800 6.227100 0.000000 0.000000 0.000000 28.488900 7.080300 -15.533000 -2.010000 -8.886800 25.441900 -0.633500 4.732900 -14.176800 -0.161500 2.589500 -7.137800 -1.454400 -1.030400 -5.602100 3.470600 -1.389700 -0.093000 4.298200 -0.740900 3.169900 -13.606200 -5.753900 -22.027800 13.652600 -6.956800 20.463700 6.200400 -2.619000 11.287200 0.000000 0.000000 0.000000 -84.852300 12.160100 40.651600 14.020000 -22.763300 -2.835800 -0.000000 0.000000 -4.847400 13.498600 -19.513200 -4.584400 -7.125000 0.000000 -0.000000 -9.564400 10.173900 7.837500 0.000000 0.000000 0.000000 75.999400 -11.304200 46.558400 -18.907700 29.303800 -4.985600 0.000000 -0.000000 -17.919000 -33.507800 -16.980700 10.943700 7.125000 -0.000000 -0.000000 -5.637900 -50.009900 0.698200
8.198800 16.269000 -30.622400 -2.261000 5.034800 3.689900 0.000000 0.000000 0.000000 -13.100400 7.086500 -22.542300 11.964700 18.375700 65.877000 -0.335600 10.577300 -6.866600 1.094500 6.648400 18.677800 0.000000 0.000000 0.000000 28.466900 7.021700 -15.315500 -2.005900 -8.878300 25.415300 -0.628200 5.048700 -14.112500 -0.168700 2.645900 -7.294400 -1.437300 -0.884900 -5.692300 3.349700 -1.192500 -0.104800 4.178000 -0.641300 3.188000 -13.635700 -5.845700 -21.817000 13.766600 -7.115600 20.264500 6.213700 -2.687400 11.206000 -0.000000 0.000000 0.000000 -84.585700 12.522300 39.988700 14.198600 -23.017900 -2.905300 -0.000000 0.000000 -5.678100 13.030000 -19.948300 -4.514400 -7.125000 0.000000 -0.000000 -9.876400 9.786200 8.179700 -0.000000 0.000000 0.000000 75.864500 -10.605800 46.971000 -18.989200 29.405300 -5.025600 0.000000 -0.000000 -17.795800 -29.937900 -21.769200 12.056400 7.125000 -0.000000 -0.000000 -1.237000 -54.717700 0.295300
8.196600 16.271000 -30.517100 -1.874100 4.832700 3.895600 0.000000 0.000000 0.000000 -13.750500 6.537800 -23.816000 11.980900 18.382600 65.928200 0.029900 7.980300 -11.973300 0.017200 -0.847800 -2.330200 0.000000 0.000000 0.000000 28.104100 7.103200 -15.054300 -2.011900 -8.890900 25.454600 -0.635400 5.351800 -14.196300 -0.106600 2.105700 -5.798000 -1.653300 -0.703300 -5.847200 3.099000 -0.927300 -0.117900 4.060600 -0.510800 3.238100 -13.562700 -5.983200 -21.581400 13.824700 -7.361500 20.053200 6.171900 -2.794800 11.123500 0.000000 0.000000 0.000000 -84.031300 13.068800 40.023100 14.628100 -23.625400 -3.075300 -0.000000 0.000000 -7.098600 12.773100 -20.441400 -4.527000 -7.125000 0.000000 -0.000000 -10.052700 9.319400 8.426300 0.000000 0.000000 0.000000 75.983200 -9.863500 46.825000 -18.947900 29.353900 -5.005300 0.000000 -0.000000 -17.384700 -28.361400 -23.754100 12.268000 7.125000 -0.000000 -0.000000 0.982800 -56.547900 -0.278300
8.192100 16.265800 -30.415300 -1.938000 4.368100 4.000100 0.000000 0.000000 0.000000 -13.860600 6.263600 -25.133200 11.978600 18.381600 65.921100 0.094900 7.135800 -12.124200 0.001000 0.203200 0.558300 0.000000 0.000000 0.000000 28.245300 7.248200 -14.745400 -2.024000 -8.915900 25.532600 -0.654400 5.688700 -14.413900 -0.059700 1.576200 -4.335700 -1.493400 -0.459700 -5.805300 3.034400 -0.609500 -0.180200 3.929800 -0.346800 3.120700 -13.552400 -5.990300 -21.587800 13.860500 -7.400000 20.206000 6.184100 -2.806900 11.188900 0.000000 0.000000 0.000000 -83.672500 13.684800 40.092500 15.030200 -24.188100 -3.238300 -0.000000 0.000000 -8.262800 13.317100 -20.900100 -4.826700 -7.125000 0.000000 -0.000000 -9.718700 8.800900 8.239900 0.000000 0.000000 0.000000 76.010800 -9.182300 46.757100 -18.928200 29.329400 -4.995600 0.000000 -0.000000 -17.053500 -29.002600 -23.283000 12.359700 7.125000 -0.000000 -0.000000 0.145200 -56.177600 -0.039800
8.188800 16.253500 -30.325300 -2.377100 3.778900 4.036200 0.000000 0.000000 0.000000 -13.543700 6.088300 -26.507600 11.958200 18.372900 65.856200 0.167000 6.753300 -12.952400 0.000500 -0.151000 -0.414800 0.000000 0.000000 0.000000 28.802000 7.286600 -14.469300 -2.036200 -8.941000 25.611100 -0.665100 6.173100 -14.551600 -0.057000 1.541200 -4.239200 -1.046300 -0.190100 -5.599400 3.235400 -0.282200 -0.272400 3.912300 -0.174100 2.882600 -13.866700 -5.986100 -21.589800 13.856000 -7.305000 20.401700 6.262000 -2.789700 11.258800 0.000000 -0.000000 0.000000 -83.809100 14.072200 39.715700 15.161300 -24.370400 -3.292200 -0.000000 0.000000 -8.835300 13.725200 -21.140700 -5.034000 -7.125000 0.000000 -0.000000 -9.467400 8.513400 8.075500 0.000000 -0.000000 0.000000 75.668200 -8.602300 46.810700 -19.007900 29.428500 -5.034800 0.000000 -0.000000 -16.901500 -29.847000 -22.667900 12.469400 7.125000 -0.000000 -0.000000 -0.936800 -55.689200 0.245700
8.184400 16.242600 -30.234400 -2.639700 3.516400 4.003000 0.000000 0.000000 0.000000 -13.366800 5.616400 -27.694200 11.889100 18.343400 65.636900 0.253400 6.263700 -13.829100 0.004900 -0.450100 -1.236900 0.000000 0.000000 0.000000 29.190000 7.363400 -14.026500 -2.042200 -8.953500 25.650000 -0.703000 6.279600 -14.960500 -0.135100 2.369200 -6.527200 -0.853500 -0.021700 -5.348600 3.436400 -0.071900 -0.321100 4.027600 -0.064600 2.675700 -14.241400 -6.054300 -21.336900 13.872100 -7.293400 20.210400 6.327000 -2.821500 11.153900 0.000000 0.000000 0.000000 -83.838200 14.514300 39.679400 15.447700 -24.766100 -3.411300 -0.000000 0.000000 -9.482800 14.048600 -20.786100 -5.074600 -7.125000 0.000000 -0.000000 -9.249400 8.833300 7.824800 0.000000 0.000000 0.000000 75.261600 -8.189700 46.617300 -19.346600 29.847100 -5.202200 0.000000 -0.000000 -16.806800 -30.151100 -23.111600 12.844200 7.125000 -0.000000 -0.000000 -1.166700 -56.244700 0.321800
8.181200 16.234000 -30.138800 -2.656600 3.365700 3.878900 0.000000 0.000000 0.000000 -13.445000 5.010500 -28.636300 11.758900 18.286900 65.222600 0.283900 6.067700 -14.101800 0.000900 0.193500 0.531700 0.000000 0.000000 0.000000 29.311900 7.373300 -13.480700 -2.055700 -8.981200 25.736700 -0.791900 6.556900 -15.881100 -0.156800 2.551200 -7.031500 -0.917400 0.041000 -5.029200 3.492900 0.016200 -0.286100 4.127200 -0.020200 2.526000 -14.110400 -6.038600 -21.378100 13.676600 -7.251100 20.149400 6.232100 -2.812400 11.117100 -0.000000 -0.000000 0.000000 -83.780500 14.969300 39.398200 15.757100 -25.190200 -3.542000 -0.000000 0.000000 -9.765300 14.562300 -20.344800 -5.160800 -7.125000 0.000000 -0.000000 -8.905700 9.219600 7.456900 -0.000000 -0.000000 0.000000 74.987300 -7.651300 46.602000 -19.739600 30.327400 -5.399300 0.000000 -0.000000 -16.695500 -30.496300 -22.294200 12.594700 7.125000 -0.000000 -0.000000 -1.732600 -55.418300 0.443200
8.177700 16.225100 -30.040300 -2.579100 3.047200 3.831800 0.000000 0.000000 0.000000 -13.660100 4.584400 -29.592400 11.579200 18.207000 64.648500 0.254300 6.604900 -14.173900 0.008300 0.588500 1.617100 0.000000 0.000000 0.000000 29.312500 7.424000 -13.025000 -2.081100 -9.033000 25.898500 -0.880400 7.164600 -16.766900 -0.096100 1.998900 -5.502600 -1.008100 0.149400 -4.947200 3.469700 0.163700 -0.134100 4.165600 0.049300 2.625000 -14.111500 -6.088500 -21.740500 13.657000 -7.277400 20.258600 6.224300 -2.814000 11.230000 -0.000000 -0.000000 0.000000 -83.852000 15.033900 38.596200 15.821000 -25.277300 -3.569200 -0.000000 0.000000 -9.756200 14.442300 -20.359600 -5.120100 -7.125000 0.000000 -0.000000 -8.983100 9.218300 7.523600 -0.000000 -0.000000 0.000000 74.778600 -6.643500 46.878700 -19.755600 30.346700 -5.407300 0.000000 -0.000000 -16.839200 -30.713300 -20.910400 11.971100 7.125000 -0.000000 -0.000000 -2.240300 -53.926600 0.491800
8.175300 16.211200 -29.940200 -2.421500 2.746400 3.942000 0.000000 0.000000 0.000000 -13.980400 4.138300 -30.690900 11.368700 18.110800 63.973200 0.232900 7.244000 -14.501700 0.007400 0.557000 1.530600 0.000000 0.000000 0.000000 29.212500 7.590300 -12.753900 -2.107100 -9.085800 26.064000 -0.900500 7.347700 -16.965000 -0.130500 2.328200 -6.413500 -1.017900 0.296500 -5.017300 3.318200 0.363000 -0.089200 4.028400 0.148200 2.695600 -14.318800 -6.193600 -21.821300 13.907900 -7.418200 20.318700 6.337100 -2.863000 11.312800 0.000000 0.000000 0.000000 -83.623500 15.270700 38.213900 15.986000 -25.501600 -3.639900 -0.000000 0.000000 -10.239300 13.906100 -20.951100 -5.059200 -7.125000 0.000000 -0.000000 -9.345800 8.683400 7.936900 0.000000 0.000000 0.000000 74.754000 -5.800200 47.084300 -19.741300 30.329400 -5.400100 0.000000 -0.000000 -17.207200 -30.917700 -21.110600 12.172600 7.125000 -0.000000 -0.000000 -2.423700 -54.192500 0.547800
